# This file uses centimeters as units for non-parametric coordinates.

mtllib GobTear.mtl
g default
v -251.880417 -74.033096 0.000000
v -321.530884 -63.103588 0.000000
v -374.616913 -87.787041 0.000000
v -386.284302 -131.316711 0.000000
v -347.954742 -198.321686 -0.000000
v -235.144882 -273.971954 -0.000000
v -130.631851 -211.375397 -0.000000
v -100.639999 -133.690628 -0.000000
v -107.383339 -77.937325 -0.000000
v -139.913116 -39.385494 -0.000000
v -241.092514 -122.546394 45.126514
v -247.247238 -99.283722 38.542263
v -281.984833 -92.157867 36.968727
v -311.497498 -104.381638 38.841805
v -319.657379 -128.239563 41.069317
v -296.448273 -162.239334 40.787334
v -238.369781 -203.591705 42.682400
v -182.892548 -169.424637 42.022072
v -166.611847 -128.868164 41.437622
v -170.044357 -99.617180 40.079769
v -189.250565 -80.230843 36.897022
v -241.092514 -122.546394 -45.126514
v -247.247238 -99.283722 -38.542263
v -281.984833 -92.157867 -36.968727
v -311.497498 -104.381638 -38.841805
v -319.657379 -128.239563 -41.069317
v -296.448273 -162.239334 -40.787334
v -238.369781 -203.591705 -42.682400
v -182.892548 -169.424637 -42.022072
v -166.611847 -128.868164 -41.437622
v -170.044357 -99.617180 -40.079769
v -189.250565 -80.230843 -36.897022
vn -0.493865 -0.282510 0.822366
vn -0.493865 -0.282510 0.822366
vn -0.493865 -0.282510 0.822366
vn -0.048536 -0.041408 0.997963
vn -0.048536 -0.041408 0.997963
vn -0.048536 -0.041408 0.997963
vn -0.446156 -0.311516 0.838989
vn -0.446156 -0.311516 0.838989
vn -0.446156 -0.311516 0.838989
vn 0.512793 -0.197975 0.835374
vn 0.512793 -0.197975 0.835374
vn 0.512793 -0.197975 0.835374
vn -0.524218 0.140507 0.839913
vn -0.524218 0.140507 0.839913
vn -0.524218 0.140507 0.839913
vn -0.059402 0.112919 0.991827
vn -0.059402 0.112919 0.991827
vn -0.059402 0.112919 0.991827
vn -0.287519 0.618358 0.731414
vn -0.287519 0.618358 0.731414
vn -0.287519 0.618358 0.731414
vn -0.462866 0.238033 0.853871
vn -0.462866 0.238033 0.853871
vn -0.462866 0.238033 0.853871
vn 0.029832 -0.029129 0.999130
vn 0.029832 -0.029129 0.999130
vn 0.029832 -0.029129 0.999130
vn -0.055314 -0.031954 0.997958
vn -0.055314 -0.031954 0.997958
vn -0.055314 -0.031954 0.997958
vn 0.291248 -0.486276 0.823839
vn 0.291248 -0.486275 0.823839
vn 0.291248 -0.486275 0.823839
vn 0.296680 -0.465607 0.833781
vn 0.296680 -0.465607 0.833782
vn 0.296680 -0.465607 0.833782
vn -0.335126 -0.499741 0.798717
vn -0.335126 -0.499741 0.798717
vn -0.335126 -0.499741 0.798717
vn -0.343571 -0.444629 0.827203
vn -0.343571 -0.444629 0.827203
vn -0.343571 -0.444629 0.827203
vn 0.049019 -0.005285 0.998784
vn 0.049019 -0.005285 0.998784
vn 0.049019 -0.005285 0.998784
vn 0.053853 0.052609 0.997162
vn 0.053853 0.052609 0.997162
vn 0.053853 0.052609 0.997162
vn 0.511682 -0.193342 0.837138
vn 0.511682 -0.193342 0.837138
vn 0.511682 -0.193342 0.837138
vn 0.534163 0.064607 0.842909
vn 0.534163 0.064607 0.842909
vn 0.534163 0.064607 0.842909
vn 0.511457 0.099639 0.853512
vn 0.511457 0.099639 0.853512
vn 0.511457 0.099639 0.853512
vn 0.415525 0.350617 0.839290
vn 0.415525 0.350617 0.839290
vn 0.415525 0.350617 0.839290
vn 0.013464 0.174966 0.984482
vn 0.013464 0.174966 0.984482
vn 0.013464 0.174966 0.984482
vn 0.288254 0.426340 0.857405
vn 0.288254 0.426340 0.857405
vn 0.288254 0.426340 0.857405
vn -0.246467 0.796484 0.552148
vn -0.246467 0.796484 0.552148
vn -0.246467 0.796484 0.552148
vn -0.029868 0.221469 0.974710
vn -0.029868 0.221469 0.974710
vn -0.029868 0.221469 0.974710
vn -0.218360 0.640076 0.736629
vn -0.218360 0.640076 0.736629
vn -0.218360 0.640076 0.736629
vn -0.057337 0.257819 0.964491
vn -0.057337 0.257819 0.964491
vn -0.057337 0.257819 0.964490
vn -0.246148 0.796909 0.551677
vn -0.246148 0.796909 0.551677
vn -0.246148 0.796909 0.551677
vn 0.012972 0.275494 0.961215
vn 0.012972 0.275494 0.961215
vn 0.012972 0.275494 0.961215
vn 0.147374 0.835367 0.529568
vn 0.147374 0.835368 0.529568
vn 0.147374 0.835367 0.529568
vn 0.132309 0.843164 0.521122
vn 0.132309 0.843164 0.521122
vn 0.132309 0.843164 0.521122
vn -0.493865 -0.282510 -0.822366
vn -0.493865 -0.282510 -0.822366
vn -0.493865 -0.282510 -0.822366
vn -0.048536 -0.041408 -0.997963
vn -0.048536 -0.041408 -0.997963
vn -0.048536 -0.041408 -0.997963
vn -0.446156 -0.311516 -0.838989
vn -0.446156 -0.311516 -0.838989
vn -0.446156 -0.311516 -0.838989
vn 0.512793 -0.197975 -0.835374
vn 0.512793 -0.197975 -0.835374
vn 0.512793 -0.197975 -0.835374
vn -0.524218 0.140507 -0.839913
vn -0.524218 0.140507 -0.839913
vn -0.524218 0.140507 -0.839913
vn -0.059402 0.112919 -0.991827
vn -0.059402 0.112919 -0.991827
vn -0.059402 0.112919 -0.991827
vn -0.287519 0.618358 -0.731414
vn -0.287519 0.618358 -0.731414
vn -0.287519 0.618358 -0.731414
vn -0.462866 0.238033 -0.853871
vn -0.462866 0.238033 -0.853871
vn -0.462866 0.238033 -0.853871
vn 0.029832 -0.029129 -0.999130
vn 0.029832 -0.029129 -0.999130
vn 0.029832 -0.029129 -0.999130
vn -0.055314 -0.031954 -0.997958
vn -0.055314 -0.031954 -0.997958
vn -0.055314 -0.031954 -0.997958
vn 0.291248 -0.486275 -0.823839
vn 0.291248 -0.486275 -0.823839
vn 0.291248 -0.486275 -0.823839
vn 0.296680 -0.465607 -0.833782
vn 0.296680 -0.465607 -0.833782
vn 0.296680 -0.465607 -0.833781
vn -0.335126 -0.499741 -0.798717
vn -0.335126 -0.499741 -0.798717
vn -0.335126 -0.499741 -0.798717
vn -0.343571 -0.444629 -0.827203
vn -0.343571 -0.444629 -0.827203
vn -0.343571 -0.444629 -0.827203
vn 0.049019 -0.005285 -0.998784
vn 0.049019 -0.005285 -0.998784
vn 0.049019 -0.005285 -0.998784
vn 0.053853 0.052609 -0.997162
vn 0.053853 0.052609 -0.997162
vn 0.053853 0.052609 -0.997162
vn 0.511682 -0.193342 -0.837138
vn 0.511682 -0.193342 -0.837138
vn 0.511682 -0.193342 -0.837138
vn 0.534163 0.064607 -0.842909
vn 0.534163 0.064607 -0.842909
vn 0.534163 0.064607 -0.842909
vn 0.511457 0.099639 -0.853512
vn 0.511457 0.099639 -0.853512
vn 0.511457 0.099639 -0.853512
vn 0.415525 0.350617 -0.839290
vn 0.415525 0.350617 -0.839290
vn 0.415525 0.350617 -0.839290
vn 0.013464 0.174966 -0.984482
vn 0.013464 0.174966 -0.984482
vn 0.013464 0.174966 -0.984482
vn 0.288254 0.426340 -0.857405
vn 0.288254 0.426340 -0.857405
vn 0.288254 0.426340 -0.857405
vn -0.246467 0.796484 -0.552148
vn -0.246467 0.796484 -0.552148
vn -0.246467 0.796484 -0.552148
vn -0.029868 0.221469 -0.974710
vn -0.029868 0.221469 -0.974710
vn -0.029868 0.221469 -0.974710
vn -0.218360 0.640076 -0.736629
vn -0.218360 0.640076 -0.736629
vn -0.218360 0.640076 -0.736629
vn -0.057337 0.257819 -0.964491
vn -0.057337 0.257819 -0.964490
vn -0.057337 0.257819 -0.964490
vn -0.246148 0.796909 -0.551677
vn -0.246148 0.796909 -0.551677
vn -0.246148 0.796909 -0.551677
vn 0.012972 0.275494 -0.961215
vn 0.012972 0.275494 -0.961215
vn 0.012972 0.275494 -0.961215
vn 0.147374 0.835367 -0.529568
vn 0.147374 0.835368 -0.529568
vn 0.147374 0.835367 -0.529568
vn 0.132309 0.843164 -0.521122
vn 0.132309 0.843164 -0.521122
vn 0.132309 0.843164 -0.521122
s off
g Mesh
usemtl initialShadingGroup
f 5//1 15//2 4//3
f 15//4 16//5 11//6
f 16//7 15//8 5//9
f 18//10 7//11 8//12
f 15//13 3//14 4//15
f 14//16 15//17 11//18
f 3//19 14//20 2//21
f 14//22 3//23 15//24
f 17//25 18//26 11//27
f 16//28 17//29 11//30
f 7//31 17//32 6//33
f 17//34 7//35 18//36
f 17//37 5//38 6//39
f 17//40 16//41 5//42
f 18//43 19//44 11//45
f 19//46 20//47 11//48
f 19//49 18//50 8//51
f 9//52 19//53 8//54
f 20//55 19//56 9//57
f 10//58 20//59 9//60
f 20//61 21//62 11//63
f 10//64 21//65 20//66
f 1//67 21//68 10//69
f 13//70 14//71 11//72
f 14//73 13//74 2//75
f 21//76 12//77 11//78
f 12//79 21//80 1//81
f 12//82 13//83 11//84
f 12//85 1//86 13//87
f 13//88 1//89 2//90
f 4//91 26//92 5//93
f 22//94 27//95 26//96
f 5//97 26//98 27//99
f 8//100 7//101 29//102
f 4//103 3//104 26//105
f 22//106 26//107 25//108
f 2//109 25//110 3//111
f 26//112 3//113 25//114
f 22//115 29//116 28//117
f 22//118 28//119 27//120
f 6//121 28//122 7//123
f 29//124 7//125 28//126
f 6//127 5//128 28//129
f 5//130 27//131 28//132
f 22//133 30//134 29//135
f 22//136 31//137 30//138
f 8//139 29//140 30//141
f 8//142 30//143 9//144
f 9//145 30//146 31//147
f 9//148 31//149 10//150
f 22//151 32//152 31//153
f 31//154 32//155 10//156
f 10//157 32//158 1//159
f 22//160 25//161 24//162
f 2//163 24//164 25//165
f 22//166 23//167 32//168
f 1//169 32//170 23//171
f 22//172 24//173 23//174
f 24//175 1//176 23//177
f 2//178 1//179 24//180
